<?xml version="1.0" encoding="UTF-8" standalone="no"?>
<!DOCTYPE svg PUBLIC "-//W3C//DTD SVG 1.1//EN" "http://www.w3.org/Graphics/SVG/1.1/DTD/svg11.dtd">
<svg width="100%" height="100%" viewBox="0 0 625 447" version="1.1" xmlns="http://www.w3.org/2000/svg" xmlns:xlink="http://www.w3.org/1999/xlink" xml:space="preserve" xmlns:serif="http://www.serif.com/" style="fill-rule:evenodd;clip-rule:evenodd;stroke-linejoin:round;stroke-miterlimit:2;">
    <g id="Artboard1" transform="matrix(0.964366,0,0,0.963008,-848.316,-263.53)">
        <rect x="879.663" y="273.653" width="647.103" height="463.19" style="fill:none;"/>
        <g transform="matrix(4.07202,0,0,3.503,-7490.77,-8394.74)">
            <g transform="matrix(0.72791,0,0,0.913048,541.777,159.534)">
                <text x="2099.95px" y="2632.3px" style="font-family:'TaameyAshkenaz-Bold', 'Taamey Ashkenaz';font-weight:700;font-stretch:semi-expanded;font-size:36.508px;fill:white;">NISHMAT</text>
                <g transform="matrix(41.8814,0,0,41.8814,2298.58,2677.94)">
                </g>
                <text x="2079.95px" y="2677.94px" style="font-family:'TaameyAshkenaz-Bold', 'Taamey Ashkenaz';font-weight:700;font-stretch:semi-expanded;font-size:41.881px;fill:white;">MENASHE</text>
            </g>
            <g transform="matrix(0.975219,0,0,1,22.2207,-57.716)">
                <g transform="matrix(0.837634,0,0,1,335.448,0)">
                    <text x="2084.86px" y="2586.3px" style="font-family:'StamSefaradCLM', 'Stam Sefarad CLM';font-weight:500;font-size:73.723px;fill:white;">ה</text>
                </g>
                <g transform="matrix(0.837634,0,0,1,343.526,0)">
                    <text x="2115.75px" y="2586.3px" style="font-family:'StamSefaradCLM', 'Stam Sefarad CLM';font-weight:500;font-size:33.333px;fill:white;">שנמ</text>
                </g>
                <g transform="matrix(0.837634,0,0,1,353.332,0)">
                    <text x="2176.15px" y="2586.3px" style="font-family:'StamSefaradCLM', 'Stam Sefarad CLM';font-weight:500;font-size:33.333px;fill:white;">תמש</text>
                </g>
                <g transform="matrix(0.837634,0,0,1,361.597,0)">
                    <g transform="matrix(73.7234,0,0,73.7234,2252.14,2586.3)">
                    </g>
                    <text x="2227.05px" y="2586.3px" style="font-family:'StamSefaradCLM', 'Stam Sefarad CLM';font-weight:500;font-size:73.723px;fill:white;">נ</text>
                </g>
            </g>
        </g>
    </g>
</svg>
